<svg xmlns="http://www.w3.org/2000/svg" width="640" height="640" viewBox="0 0 640 640"><rect width="640" height="640" fill="#f8fafc"/><circle cx="320" cy="316" r="214" fill="#e0e7ff"/><path d="M154 288c25-35 102-39 146-14 14 8 17 27 6 40l-52 62c-30 35-88 27-110-15-13-27-8-51 10-73Z" fill="#111827"/><path d="M486 288c-25-35-102-39-146-14-14 8-17 27-6 40l52 62c30 35 88 27 110-15 13-27 8-51-10-73Z" fill="#111827"/><path d="M300 292c15-10 25-10 40 0M112 288h44M484 288h44" stroke="#111827" stroke-width="19" stroke-linecap="round"/><path d="M180 302c33-13 70-13 102 0M360 302c33-13 70-13 102 0" stroke="#818cf8" stroke-width="10" stroke-linecap="round" opacity=".65"/></svg>
